<?xml version="1.0" encoding="UTF-8"?>
<svg width="768px" height="768px" viewBox="0 0 768 768" version="1.1" xmlns="http://www.w3.org/2000/svg" xmlns:xlink="http://www.w3.org/1999/xlink">
    <title>Logo</title>
    <defs>
        <linearGradient x1="55.6298879%" y1="4.81348973%" x2="50.3333908%" y2="88.051202%" id="linearGradient-1">
            <stop stop-color="#00BC54" offset="0.0665838068%"></stop>
            <stop stop-color="#1B9851" offset="48.1655308%"></stop>
            <stop stop-color="#073817" offset="100%"></stop>
        </linearGradient>
        <linearGradient x1="50%" y1="10.2962066%" x2="50%" y2="81.0852668%" id="linearGradient-2">
            <stop stop-color="#83E40C" offset="0%"></stop>
            <stop stop-color="#2BC002" offset="42.4891759%"></stop>
            <stop stop-color="#026A1C" offset="100%"></stop>
        </linearGradient>
        <linearGradient x1="66.1413761%" y1="4.81348973%" x2="50.9558602%" y2="88.051202%" id="linearGradient-3">
            <stop stop-color="#00BC54" offset="0.0665838068%"></stop>
            <stop stop-color="#1B9851" offset="48.1655308%"></stop>
            <stop stop-color="#073817" offset="100%"></stop>
        </linearGradient>
        <linearGradient x1="57.9951424%" y1="4.81348973%" x2="50.4734564%" y2="88.051202%" id="linearGradient-4">
            <stop stop-color="#00BC54" offset="0.0665838068%"></stop>
            <stop stop-color="#1B9851" offset="48.1655308%"></stop>
            <stop stop-color="#073817" offset="100%"></stop>
        </linearGradient>
        <linearGradient x1="56.0998623%" y1="4.81348973%" x2="50.3612217%" y2="88.051202%" id="linearGradient-5">
            <stop stop-color="#00BC54" offset="0.0665838068%"></stop>
            <stop stop-color="#1B9851" offset="48.1655308%"></stop>
            <stop stop-color="#073817" offset="100%"></stop>
        </linearGradient>
        <linearGradient x1="50%" y1="10.2962066%" x2="50%" y2="81.0852668%" id="linearGradient-6">
            <stop stop-color="#83E40C" offset="0%"></stop>
            <stop stop-color="#2BC002" offset="42.4891759%"></stop>
            <stop stop-color="#026A1C" offset="100%"></stop>
        </linearGradient>
        <linearGradient x1="62.8120652%" y1="4.81348973%" x2="50.758705%" y2="88.051202%" id="linearGradient-7">
            <stop stop-color="#00BC54" offset="0.0665838068%"></stop>
            <stop stop-color="#1B9851" offset="48.1655308%"></stop>
            <stop stop-color="#073817" offset="100%"></stop>
        </linearGradient>
        <linearGradient x1="50%" y1="10.2962066%" x2="50%" y2="81.0852668%" id="linearGradient-8">
            <stop stop-color="#83E40C" offset="0%"></stop>
            <stop stop-color="#2BC002" offset="42.4891759%"></stop>
            <stop stop-color="#026A1C" offset="100%"></stop>
        </linearGradient>
    </defs>
    <g id="Logo" stroke="none" stroke-width="1" fill="none" fill-rule="evenodd">
        <path d="M303.296,155.875 C258.366,265.836 301.868,292.785 312.902,303.229 L312.902,303.229 C323.332,313.099 351.971,325.053 365.913,349.933 L365.913,349.933 C378.045,371.583 378.657,392.644 380.791,391.236 L380.791,391.236 C381.626,390.685 385.102,383.369 386.407,373.777 L386.407,373.777 C389.327,352.321 387.434,316.224 403.207,288.499 L403.207,288.499 C424.44,251.173 475.082,210.883 475.082,210.883 L475.082,210.883 C475.082,210.883 457.3,172.921 436.018,112.62 L436.018,112.62 C414.735,52.318 425.074,4 425.074,4 L425.074,4 C425.074,4 348.227,45.914 303.296,155.875" id="Fill-1" fill="url(#linearGradient-1)"></path>
        <path d="M303.296,155.875 C258.366,265.836 301.868,292.785 312.902,303.229 L312.902,303.229 C323.332,313.099 351.971,325.053 365.913,349.933 L365.913,349.933 C378.045,371.583 378.657,392.644 380.791,391.236 L380.791,391.236 C380.791,391.236 376.499,321.276 377.121,257.938 L377.121,257.938 C377.46,223.46 380.634,197.109 383.132,172.806 L383.132,172.806 C393.675,70.235 425.074,4 425.074,4 L425.074,4 C425.074,4 348.227,45.914 303.296,155.875" id="Fill-4" fill="url(#linearGradient-2)"></path>
        <path d="M343.666,482.789 C324.945,499.831 315.452,521.555 315.452,547.355 L315.452,547.355 C315.452,562.201 318.695,575.42 325.089,586.643 L325.089,586.643 C331.45,597.809 340.289,607.009 351.356,613.984 L351.356,613.984 L352.54,614.731 C363.153,621.436 380.915,632.655 402.426,641.99 L402.426,641.99 C425.967,652.212 436.277,660.365 438.992,662.719 L438.992,662.719 L439.854,663.435 C445.764,668.346 445.878,668.441 445.878,672.794 L445.878,672.794 C445.878,679.994 442.677,686.065 436.091,691.354 L436.091,691.354 C432.477,694.257 426.256,690.117 418.645,685.977 L418.645,685.977 C411.522,682.101 403.18,678.225 394.621,680.127 L394.621,680.127 C374.815,684.529 365.798,695.706 358.901,687.556 L358.901,687.556 C355.482,683.557 351.022,676.331 351.741,659.803 L351.741,659.803 L352.078,652.061 L282.151,649.609 L281.339,656.659 C279.263,674.714 283.258,695.348 292.3,713.273 L292.3,713.273 C300.358,729.252 314.207,741.828 333.458,750.651 L333.458,750.651 C352.095,759.197 374.307,763.531 399.474,763.531 L399.474,763.531 C436.296,763.531 465.608,753.997 486.597,735.197 L486.597,735.197 C507.83,716.178 518.596,692.86 518.596,665.889 L518.596,665.889 C518.596,643.755 511.166,625.315 496.55,611.122 L496.55,611.122 L496,610.578 C487.007,601.709 475.816,590.668 442.837,576.458 L442.837,576.458 C435.454,573.252 427.925,570.245 420.645,567.337 L420.645,567.337 C409.07,562.714 395.951,557.475 392.706,554.695 L392.706,554.695 C388.173,550.902 386.063,546.437 386.063,540.642 L386.063,540.642 C386.063,534.352 388.432,529.472 393.521,525.287 L393.521,525.287 C398.839,520.911 408.99,518.597 422.874,518.597 L422.874,518.597 C437.14,518.597 447.842,521.584 454.682,527.474 L454.682,527.474 C461.897,533.693 466.406,539.673 466.591,550.247 L466.591,550.247 L466.716,557.485 L537.256,560.473 L537.395,552.595 C537.863,526.083 526.012,500.511 504.876,482.437 L504.876,482.437 C485.431,465.815 457.97,457.386 423.259,457.386 L423.259,457.386 C388.956,457.386 362.177,465.932 343.666,482.789" id="Fill-7" fill="url(#linearGradient-3)"></path>
        <path d="M214.146,250.287 C208.371,257.971 182.51,312.654 201.288,390.94 L201.288,390.94 C202.627,396.525 182.105,383.376 161.413,370.227 L161.413,370.227 C140.355,356.845 119.123,343.464 120.578,349.826 L120.578,349.826 C115.555,349.026 149.857,376.149 168.627,399.736 L168.627,399.736 C182.847,417.606 183.257,433.474 178.973,433.474 L178.973,433.474 C145.764,433.474 116.424,442.119 91.767,459.166 L91.767,459.166 C67.175,476.171 47.958,500.402 34.656,531.178 L34.656,531.178 C23.604,556.662 18,583.692 18,611.518 L18,611.518 C18,653.429 31.284,685.951 57.485,708.181 L57.485,708.181 C76.73,724.508 104.569,732.787 140.229,732.787 L140.229,732.787 C162.917,732.787 185.507,729.368 207.371,722.624 L207.371,722.624 C229.18,715.895 247.896,707.534 262.999,697.77 L262.999,697.77 L264.493,696.804 L291.257,569.271 L156.704,569.271 L145.143,624.802 L216.887,624.802 L209.734,659.458 C200.946,663.782 190.682,668.387 178.628,670.785 L178.628,670.785 C140.232,678.422 139.28,678.56 131.429,656.129 L131.429,656.129 C128.52,647.82 122.541,652.454 115.791,657.088 L115.791,657.088 C109.757,661.23 103.107,665.372 97.485,660.271 L97.485,660.271 C86.819,650.595 82.546,633.165 82.546,610.75 L82.546,610.75 C82.546,587.412 86.88,565.592 95.427,545.894 L95.427,545.894 C103.858,526.467 115.625,511.95 130.402,502.746 L130.402,502.746 C145.245,493.5 161.78,488.814 179.549,488.814 L179.549,488.814 C194.498,488.814 207.018,492.585 216.756,500.021 L216.756,500.021 C227.291,508.066 234.921,516.411 237.921,530.996 L237.921,530.996 L238.641,534.496 L267.553,533.742 L301.18,532.863 L300.563,528.163 C300.092,524.578 299.437,521.028 298.611,517.527 L298.611,517.527 C287.189,441.189 306.311,422.909 305.116,390.644 L305.116,390.644 C303.443,345.482 272.921,336.246 257.402,310.529 L257.402,310.529 C248.124,295.153 222.997,249.405 220.847,247.134 L220.847,247.134 C220.075,246.318 219.377,245.982 218.728,245.982 L218.728,245.982 C217.036,245.982 215.668,248.263 214.146,250.287" id="Fill-10" fill="url(#linearGradient-4)"></path>
        <path d="M599.663,270.353 C597.237,300.252 573.102,384.023 543.798,427.192 L543.798,427.192 C529.111,448.83 506.02,467.337 506.02,467.337 L506.02,467.337 C506.02,467.337 554.831,500.083 551.333,560.493 L551.333,560.493 C555.579,560.87 554.815,559.383 559.785,567.149 L559.785,567.149 C565.774,576.51 578.795,587.021 588.495,592.902 L588.495,592.902 C598.191,598.787 615.788,606.325 636.779,615.008 L636.779,615.008 C657.771,623.693 672.665,631.044 677.381,634.996 L677.381,634.996 C684.075,640.382 686.52,643.311 686.657,651.254 L686.657,651.254 C686.816,660.418 685.703,670.183 676.367,674.64 L676.367,674.64 C663.594,680.739 652.753,674.441 644.345,668.144 L644.345,668.144 C636.392,662.189 630.614,656.232 627.433,660.762 L627.433,660.762 C612.407,682.157 601.761,679.091 593.531,669.697 L593.531,669.697 C588.417,663.919 582.752,656.8 583.192,640.042 L583.192,640.042 L530.513,639.106 C528.767,656.995 533.906,675.207 541.11,688.895 L541.11,688.895 C548.315,702.586 560.444,713.163 577.506,720.628 L577.506,720.628 C594.563,728.096 614.642,731.631 637.739,731.232 L637.739,731.232 C671.219,730.654 697.196,721.803 715.666,704.673 L715.666,704.673 C734.133,687.549 743.164,667.132 742.754,643.423 L742.754,643.423 C742.423,624.239 736.839,607.794 724.044,595.789 L724.044,595.789 C715.468,587.626 692.955,573.163 672.67,564.068 L672.67,564.068 C652.242,554.909 625.245,546.079 620.705,542.307 L620.705,542.307 C614.699,537.316 611.72,533.653 611.586,525.954 L611.586,525.954 C611.445,517.769 612.362,513.242 618.807,507.75 L618.807,507.75 C625.251,502.26 634.975,499.403 650.252,499.139 L650.252,499.139 C665.77,498.871 677.58,503.227 685.644,509.932 L685.644,509.932 C693.705,516.642 691.563,519.587 692.009,532.483 L692.009,532.483 L748.457,534.888 C753.49,502.169 740.963,487.317 723.416,472.829 L723.416,472.829 C714.955,465.845 704.87,460.607 693.16,457.116 L693.16,457.116 C680.582,453.366 666.13,451.632 649.803,451.914 L649.803,451.914 C645.642,451.986 655.432,429.851 665.098,407.716 L665.098,407.716 C676.114,382.489 686.97,357.262 676.838,364.907 L676.838,364.907 C662.282,375.89 611.892,451.96 602.222,444.31 L602.222,444.31 C587,432.27 629.564,432.705 610.483,279.078 L610.483,279.078 C608.543,263.463 606.329,258.576 604.409,258.576 L604.409,258.576 C601.947,258.576 599.967,266.599 599.663,270.353" id="Fill-13" fill="url(#linearGradient-5)"></path>
        <path d="M279.845,320.029 C289.733,333.798 319.258,356.288 314.923,399.642 L314.923,399.642 C310.614,442.735 300.048,470.747 311.085,512.288 L311.085,512.288 C316.024,497.679 322.298,484.801 334.503,473.69 L334.503,473.69 C341.173,467.617 352.938,459.402 361.485,455.338 L361.485,455.338 C372.293,437.027 374.982,423.906 372.239,397.9 L372.239,397.9 C367.321,351.281 346.995,336.724 316.112,312.923 L316.112,312.923 C301.685,301.804 283.491,290.371 276.84,262.24 L276.84,262.24 C275.77,257.715 274.445,255.751 273.13,255.751 L273.13,255.751 C267.277,255.751 261.647,294.684 279.845,320.029" id="Fill-16" fill="url(#linearGradient-6)"></path>
        <path d="M491.885,205.141 C423.603,261.205 402.938,290.165 398.28,325.447 L398.28,325.447 C394.326,355.412 394.635,392.548 382.516,433.044 L382.516,433.044 C380.638,439.315 377.865,445.714 374.524,452.05 L374.524,452.05 C387.779,448.229 402.706,446.284 419.272,446.284 L419.272,446.284 C449.572,446.284 476.505,450.018 496.126,462.283 L496.126,462.283 C528.871,434.377 548.342,406.027 566.966,352.938 L566.966,352.938 C592.683,279.63 589.727,249.184 591.205,208.096 L591.205,208.096 C592.683,167.009 606.28,151.934 606.28,151.934 L606.28,151.934 C606.28,151.934 543.614,165.531 491.885,205.141" id="Fill-19" fill="url(#linearGradient-7)"></path>
        <path d="M398.28,325.447 C394.326,355.412 394.635,392.548 382.516,433.044 C380.638,439.315 377.865,445.714 374.524,452.05 C379.169,450.711 384.021,449.603 389.078,448.731 C406.961,427.992 428.412,401.845 453.483,369.229 C493.362,317.353 512.208,271.88 541.767,228.526 C588.975,159.289 606.28,151.934 606.28,151.934 C606.28,151.934 543.614,165.531 491.885,205.141 C423.603,261.205 402.938,290.165 398.28,325.447 Z" id="Fill-22" fill="url(#linearGradient-8)"></path>
    </g>
</svg>